<?xml version="1.0" encoding="utf-8"?>
<!-- Generator: Adobe Illustrator 16.0.0, SVG Export Plug-In . SVG Version: 6.00 Build 0)  -->
<!DOCTYPE svg PUBLIC "-//W3C//DTD SVG 1.1//EN" "http://www.w3.org/Graphics/SVG/1.1/DTD/svg11.dtd">
<svg version="1.1" id="Layer_1" xmlns="http://www.w3.org/2000/svg" xmlns:xlink="http://www.w3.org/1999/xlink" x="0px" y="0px"
	 width="1200px" height="1200px" viewBox="0 0 1200 1200" enable-background="new 0 0 1200 1200" xml:space="preserve">
<g>
	<defs>
		<path id="SVGID_1_" d="M0,0v895c0,0,401.106,140.212,1200-278.937V0H0z"/>
	</defs>
	<clipPath id="SVGID_2_">
		<use xlink:href="#SVGID_1_"  overflow="visible"/>
	</clipPath>
	<g transform="matrix(1 0 0 1 7.629395e-006 -2.328306e-010)" clip-path="url(#SVGID_2_)">
		
			<image overflow="visible" width="640" height="426" xlink:href="img/<?php echo $foto ?>"  transform="matrix(2.3364 0 0 2.3364 -102.7217 0.0029)">
		</image>
	</g>
</g>
<path fill="#0000B7" d="M1200,1200H0V895c0,0,401.106,140.212,1200-278.937V1200z"/>
<g>
	
		<text transform="matrix(1 0 0 1 39.4482 858.2295)" fill="#FFFF00" stroke="#000000" stroke-miterlimit="10" font-family="'Arial'" font-size="91.4222">Eu voto</text>
</g>
<text transform="matrix(1 0 0 1 71.0713 969.2266)" fill="#FFFFFF" stroke="#000000" stroke-miterlimit="10" font-family="'Arial'" font-size="55.5162">Vereador</text>
<text transform="matrix(1 0 0 1 355.293 1121.2129)" fill="#FFFFFF" stroke="#000000" stroke-miterlimit="10" font-family="'Arial'" font-size="111.2192"><?php echo $nome ?></text>
<text transform="matrix(1 0 0 1 541.4155 955.9551)" fill="#FFFF00" stroke="#000000" stroke-miterlimit="10" font-family="'Arial Bold'" font-size="199.1907"><?php echo $numero?></text>
</svg>
